<?xml version="1.0" encoding="utf-8"?>
<!DOCTYPE svg PUBLIC "-//W3C//DTD SVG 1.1//EN" "http://www.w3.org/Graphics/SVG/1.1/DTD/svg11.dtd">
<svg version="1.1" fill="white" id="Warstwa_1" xmlns="http://www.w3.org/2000/svg" xmlns:xlink="http://www.w3.org/1999/xlink" x="0px" y="0px"
	 width="793.701px" height="793.701px" viewBox="0 0 793.701 793.701" enable-background="new 0 0 793.701 793.701"
	 xml:space="preserve">
<g>
	<path fill-rule="evenodd" clip-rule="evenodd" d="M408.875,639.789c-1.574,0.208-3.15,0.606-4.723,0.593
		c-11.328-0.096-22.654-0.328-33.981-0.407c-7.101-0.05-8.516,1.522-8.492,8.462c0.051,14.998,0.206,29.999-0.066,44.991
		c-0.107,5.883,1.702,9.814,7.255,12.262c6.354,2.801,10.701,7.969,13.6,14.111c2.095,4.436,5.222,5.996,9.896,5.941
		c14.997-0.178,29.997-0.328,44.989-0.084c2.895,0.049,6.265,1.295,8.535,3.098c5.198,4.125,9.93,8.855,14.671,13.523
		c1.152,1.135,1.611,2.975,2.39,4.49c-1.532,0.404-3.064,1.16-4.597,1.162c-21.33,0.037-42.661,0.096-63.99-0.152
		c-5.893-0.068-9.734,1.678-13.067,6.961c-13.479,21.361-42.685,23.146-58.867,3.971c-0.43-0.51-1.048-0.963-1.242-1.553
		c-2.968-9.012-9.861-9.543-18-9.416c-25.158,0.389-50.326,0.158-75.49,0.121c-6.187-0.01-10.783-2.904-12.351-7.539
		c-1.543-4.561-0.162-9.688,4.1-12.326c2.257-1.396,5.272-2.172,7.952-2.191c26.33-0.191,52.662-0.305,78.991-0.102
		c6.19,0.047,9.905-2.025,13.404-7.336c3.347-5.08,8.361-9.418,13.461-12.875c4.341-2.943,6.673-5.814,6.592-11.186
		c-0.231-15.328-0.084-30.661-0.065-45.992c0.009-7.077-1.319-8.429-8.479-8.427c-80.492,0.017-160.984-0.009-241.477,0.085
		c-22.022,0.025-38.971-8.75-48.308-28.976c-3.223-6.982-4.589-15.405-4.629-23.181c-0.341-66.325-0.192-132.653-0.168-198.98
		c0.017-47.328-0.054-94.658,0.163-141.986c0.09-19.585,6.928-36.488,21.958-49.565c9.316-8.106,20.405-12.007,32.59-12.058
		c48.161-0.201,96.323-0.202,144.484-0.144c11.546,0.014,21.349,4.232,29.165,13.039c5.416,6.104,11.25,11.835,16.918,17.714
		c8.05,8.351,17.702,12.239,29.481,12.22c78.825-0.132,157.652,0.008,236.478,0.059c1.5,0.001,3.001,0.025,4.499-0.03
		c5.964-0.223,7.51-1.581,7.522-7.447c0.081-38.162,0.055-76.324,0.131-114.487c0.01-4.938-2.551-6.986-7.104-6.98
		c-8.33,0.01-16.66,0.106-24.989,0.249c-8.412,0.145-15.029-3.294-19.093-10.538c-1.783-3.18-2.74-7.171-2.9-10.845
		c-0.362-8.313,0.025-16.658,0.065-24.99c0.035-7.201-1.164-8.388-8.451-8.386c-84.992,0.03-169.984,0.067-254.976,0.1
		c-3,0.001-6.005-0.154-8.997-0.015c-5.058,0.237-6.797,2.075-6.866,7.185c-0.056,4.165,0.081,8.332,0.084,12.498
		c0.02,30.33,0.016,60.661,0.056,90.991c0.004,2.994,0.323,5.987,0.369,8.982c0.08,5.202-1.976,7.297-7.217,7.292
		c-37.329-0.036-74.658-0.102-111.987-0.153c-6.499-0.01-13.001-0.151-19.496,0.025c-18.163,0.493-33.043,7.926-45.057,21.459
		c-1.205,1.357-3.217,1.998-4.855,2.972c-0.618-1.73-1.726-3.449-1.768-5.193c-0.168-6.994-0.107-13.998,0.053-20.993
		c0.585-25.468,20.951-45.888,46.467-46.044c36.662-0.225,73.326-0.044,109.989-0.036c1.333,0.001,2.668,0.066,3.999,0.008
		c6.178-0.271,8.014-2.253,7.983-8.297c-0.131-26.327-0.188-52.655-0.368-78.982c-0.04-5.76,1.294-10.776,6.983-13.18
		c2.497-1.055,5.486-1.306,8.252-1.309c44.661-0.058,89.322,0.015,133.983-0.005c52.163-0.023,104.324-0.035,156.485-0.268
		c5.844-0.025,10.243,1.878,14.179,5.914c17.099,17.532,34.214,35.048,51.449,52.444c3.77,3.804,5.555,8.016,5.546,13.365
		c-0.069,41.828-0.011,83.657-0.023,125.485c-0.002,7.827,1.353,9.259,9.348,9.255c19.332-0.009,38.664-0.168,57.994-0.026
		c15.863,0.116,26.584,7.264,31.414,21.465c1.494,4.391,1.909,9.576,1.285,14.191c-5.695,42.096-11.727,84.146-17.664,126.209
		c-1.163,8.244-2.309,16.492-3.531,24.728c-0.728,4.895-3.174,6.196-7.741,4.292c-4.541-1.894-7.431-4.812-8.854-9.92
		c-4.77-17.124-20.352-28.843-38.117-29.098c-12.663-0.182-25.331-0.16-37.996-0.148c-18.751,0.016-33.839,10.735-39.355,28.731
		c-1.906,6.22-5.11,9.975-11.188,12.117c-3.669,1.293-6.602,1.256-9.898-0.714c-18.662-11.149-34.709-9.389-50.251,5.724
		c-10.39,10.103-20.849,20.175-30.62,30.86c-11.578,12.661-12.064,31.149-2.064,45.18c5.896,8.271,1.662,19.329-8.302,21.676
		c-18.022,4.245-31.626,21.521-31.583,40.091c0.026,11.666,0.063,23.331,0.044,34.997c-0.024,14.552,5.439,26.158,17.932,34.168
		c2.413,1.547,4.495,3.612,6.729,5.438C409.284,638.678,409.08,639.234,408.875,639.789z"/>
	<path fill-rule="evenodd" clip-rule="evenodd" d="M484.12,443.765c2.45,1.112,4.829,1.889,6.886,3.179
		c8.033,5.038,15.793,10.54,24.035,15.194c2.478,1.399,6.512,1.564,9.275,0.635c6.907-2.322,13.452-5.702,20.228-8.447
		c3.857-1.562,6.404-4.021,7.341-8.133c1.885-8.281,3.832-16.547,5.746-24.821c2.232-9.652,4.788-11.395,14.52-11.087
		c10.155,0.321,20.324,0.214,30.487,0.236c7.419,0.018,10.467,2.595,11.934,9.924c1.633,8.163,3.443,16.29,5.145,24.438
		c1.004,4.811,3.791,7.892,8.406,9.687c6.664,2.593,13.098,5.815,19.851,8.121c2.497,0.854,6.15,0.81,8.364-0.439
		c8.104-4.576,15.88-9.746,23.674-14.855c7.205-4.724,10.253-4.748,16.269,1.072c8.02,7.759,15.942,15.623,23.7,23.643
		c4.85,5.012,4.963,8.507,1.271,14.283c-5.105,7.993-10.096,16.064-15.363,23.949c-2.436,3.647-2.315,6.883-0.452,10.731
		c2.892,5.975,5.501,12.111,7.806,18.337c1.797,4.845,4.846,7.813,9.871,8.85c7.988,1.648,15.963,3.361,23.953,4.994
		c7.369,1.505,10.047,4.953,9.967,12.441c-0.112,10.496-0.094,20.994-0.03,31.491c0.051,8.482-2.404,11.558-10.812,13.307
		c-7.666,1.594-15.299,3.348-22.98,4.845c-5.701,1.111-8.838,4.387-10.615,9.918c-1.924,5.992-4.51,11.809-7.251,17.488
		c-1.771,3.668-2.065,6.854,0.226,10.312c5.24,7.908,10.348,15.904,15.564,23.828c3.758,5.707,3.629,9.933-1.105,14.78
		c-7.795,7.983-15.654,15.909-23.713,23.622c-6.193,5.928-8.534,5.904-15.697,1.203c-7.515-4.932-15.09-9.771-22.584-14.736
		c-4.062-2.691-8.043-2.436-12.297-0.436c-6.017,2.826-12.079,5.582-18.253,8.041c-4.272,1.701-6.861,4.5-7.794,8.959
		c-1.703,8.15-3.579,16.268-5.137,24.445c-1.571,8.244-4.789,10.928-13.313,10.865c-9.996-0.072-19.995-0.025-29.992,0.041
		c-8.502,0.055-11.271-1.951-13.311-10.275c-2.101-8.572-4.124-17.168-5.987-25.795c-0.945-4.377-3.427-6.766-7.607-8.324
		c-6.059-2.258-11.928-5.061-17.769-7.859c-4.463-2.137-8.391-2.055-12.651,0.807c-8.285,5.561-16.829,10.738-25.288,16.039
		c-3.167,1.984-6.619,2.117-9.29-0.432c-9.88-9.424-19.605-19.014-29.236-28.693c-2.734-2.748-2.242-6.123-0.277-9.22
		c5.174-8.151,10.232-16.385,15.684-24.349c3.046-4.45,3.646-8.468,1.19-13.459c-3.15-6.402-5.729-13.104-8.245-19.793
		c-1.374-3.648-3.602-5.765-7.398-6.582c-7.486-1.611-14.911-3.519-22.407-5.085c-10.612-2.218-12.846-5.086-12.703-16.04
		c0.126-9.661-0.05-19.327-0.12-28.991c-0.056-7.741,2.478-10.723,10.146-12.307c7.989-1.65,15.924-3.562,23.913-5.213
		c4.352-0.899,6.899-3.386,8.499-7.511c2.464-6.355,5.058-12.7,8.175-18.752c2.535-4.922,2.099-9.061-0.845-13.536
		c-5.026-7.645-9.652-15.553-14.681-23.195c-2.816-4.279-2.779-8.072,0.816-11.696c8.916-8.986,17.825-17.981,26.877-26.831
		C480.058,445.281,482.147,444.763,484.12,443.765z M663.695,581.191c-1.154-42.588-36.084-77.57-78.069-77.093
		c-42.921,0.487-77.17,35.834-77.095,77.334c0.077,43.332,34.872,78.408,77.562,78.259
		C628.708,659.543,663.806,624.039,663.695,581.191z"/>
	<path fill-rule="evenodd" clip-rule="evenodd" d="M394.275,163.896c32.828,0,65.655-0.018,98.482,0.011
		c8.841,0.008,14.058,5.049,13.138,12.519c-0.605,4.918-5.425,9.421-10.996,9.976c-2.808,0.279-5.659,0.146-8.49,0.148
		c-63.155,0.03-126.311,0.072-189.465,0.015c-2.747-0.003-5.683-0.477-8.199-1.526c-4.576-1.909-7.308-7.079-6.594-11.272
		c0.822-4.835,5.189-9.077,10.152-9.716c1.644-0.211,3.326-0.166,4.991-0.167c32.327-0.008,64.655-0.006,96.982-0.006
		C394.275,163.884,394.275,163.89,394.275,163.896z"/>
	<path fill-rule="evenodd" clip-rule="evenodd" d="M394.306,123.974c-32.666,0-65.333,0.115-97.998-0.161
		c-3.651-0.03-7.855-1.525-10.765-3.718c-2.963-2.233-4.563-6.203-2.814-10.376c1.802-4.297,4.936-7.093,9.567-7.912
		c1.787-0.316,3.654-0.242,5.484-0.242c64.333-0.025,128.667-0.038,192.999-0.052c0.833-0.001,1.667-0.006,2.5,0.016
		c7.661,0.195,13.212,5.089,13.075,11.521c-0.131,6.132-5.749,10.949-13.05,10.96c-26.666,0.038-53.332,0.009-79.999,0.006
		c-6.333-0.001-12.667-0.001-19-0.001C394.306,124.001,394.306,123.987,394.306,123.974z"/>
	<path fill-rule="evenodd" clip-rule="evenodd" d="M595.941,189.064c0-6.161,0.047-12.323-0.018-18.483
		c-0.041-3.942,1.785-5.729,5.731-5.854c26.544-0.833,43.376,19.718,41.98,44.436c-0.209,3.699-2.541,5.233-6.021,5.246
		c-11.814,0.045-23.63,0.035-35.445,0.091c-4.384,0.021-6.403-2.161-6.392-6.454c0.017-6.327,0.004-12.654,0.004-18.981
		C595.834,189.064,595.887,189.064,595.941,189.064z"/>
	<path fill-rule="evenodd" clip-rule="evenodd" d="M190.812,737.71c-0.096,6.408-5.359,11.357-12.058,11.34
		c-6.673-0.018-12.122-5.508-11.936-12.027c0.18-6.277,5.645-11.41,12.135-11.393C185.712,725.648,190.914,730.947,190.812,737.71z"
		/>
</g>
</svg>
